<?xml version="1.0" ?><!DOCTYPE svg  PUBLIC '-//W3C//DTD SVG 1.1//EN'  'http://www.w3.org/Graphics/SVG/1.1/DTD/svg11.dtd'><svg enable-background="new 0 0 1010 1010" id="love-book" version="1.1" viewBox="0 0 1010 1010" xml:space="preserve" xmlns="http://www.w3.org/2000/svg" xmlns:xlink="http://www.w3.org/1999/xlink"><g id="love-book-label"><path d="M505,0C226.106,0,0,226.1157,0,504.9805C0,783.8945,226.106,1010,505,1010   c278.875,0,505-226.1055,505-505.0195C1010,226.1157,783.875,0,505,0z" fill="#F6BBBB"/></g><g id="love-book-love-book"><g><path d="M455.0527,732.0039h262.1661c-21.2365-15.9199-21.2365-47.7285,0-63.6777H324.6201    c-17.5068,0-31.8384,14.3408-31.8384,31.8486c0,17.4971,14.3316,31.8291,31.8384,31.8291H367.96" fill="#FED78F"/><path d="M717.2188,742.1035H455.0527v-20.2002h241.0684c-3.2158-6.6474-4.9219-14.0254-4.9316-21.709    c0-7.7031,1.7158-15.1006,4.9413-21.7685H324.6201c-11.9834,0-21.7383,9.7549-21.7383,21.749    c0,11.9834,9.7549,21.7285,21.7383,21.7285H367.96v20.2002h-43.3399c-23.1289,0-41.9385-18.8096-41.9385-41.9287    c0-23.1299,18.8096-41.9482,41.9385-41.9482h392.5987c4.3495,0,8.206,2.7812,9.5771,6.9043    c1.3809,4.122-0.04,8.6591-3.5117,11.2734c-7.5654,5.6807-11.8955,14.3506-11.8955,23.7803    c0.0107,9.4287,4.3398,18.0791,11.8857,23.7412c3.4814,2.6035,4.9023,7.1504,3.5215,11.2734    C725.4248,739.3223,721.5684,742.1035,717.2188,742.1035L717.2188,742.1035z" fill="#313233"/></g><g><path d="M356.4492,668.3262h-31.8291c-22.5469,0-31.8384,23.0703-31.8384,21.2451V256.3271    c0-24.4218,19.8252-44.2275,44.2369-44.2275h19.4306h360.7696v456.2266h-10.6329H356.4492z" fill="#FFFFFF"/><path d="M292.8213,699.7695c-2.6729,0-5.2573-1.0644-7.1509-2.9482c-1.9038-1.8936-2.9888-4.5674-2.9888-7.25    V256.3271c0-29.955,24.3721-54.3271,54.337-54.3271h380.2002c5.582,0,10.0995,4.5176,10.0995,10.0996v456.2266    c0,5.582-4.5176,10.0996-10.0995,10.0996H324.6201c-11.4805,0-18.227,8.7187-22.3008,15.2685    c-1.1338,1.8156-3.7675,6.0656-9.4687,6.0752C292.8408,699.7695,292.8311,699.7695,292.8213,699.7695L292.8213,699.7695z     M337.0186,222.2002c-18.8194,0-34.1368,15.3076-34.1368,34.1269v408.0928c6.5889-4.1426,13.8379-6.1933,21.7383-6.1933h382.4981    V222.2002H337.0186L337.0186,222.2002z" fill="#313233"/></g><g><path d="M451.9355,692.8857v105.0147l-32.2334-32.2334c-5.6416-5.6416-14.7651-5.6416-20.4169,0l-32.233,32.2334    V692.8857" fill="#F05354"/><path d="M451.9355,808c-2.6235,0-5.208-1.0254-7.1406-2.959l-32.2334-32.2334    c-1.6963-1.6767-4.4287-1.706-6.145,0.0098l-32.2231,32.2236c-2.8999,2.8994-7.23,3.7676-11.0079,2.1895    c-3.7773-1.5587-6.2334-5.2471-6.2334-9.3301V692.8857h20.2002v80.6319l14.9922-14.9922c9.5674-9.5674,25.1319-9.5674,34.6993,0    l14.9921,14.9922v-80.6319h20.1997v105.0147c0,4.083-2.456,7.7715-6.2338,9.3301C454.5493,807.7539,453.2373,808,451.9355,808    L451.9355,808z" fill="#313233"/></g><path d="M695.9824,710.2744H324.6201c-5.582,0-10.0996-4.5176-10.0996-10.0996   c0-5.583,4.5176-10.1006,10.0996-10.1006h371.3623c5.583,0,10.1006,4.5176,10.1006,10.1006   C706.083,705.7568,701.5654,710.2744,695.9824,710.2744L695.9824,710.2744z" fill="#313233"/><g><path d="M505,376.3926c0-35.6162,28.8203-64.417,64.417-64.417c35.5674,0,64.4268,28.8008,64.4268,64.417    c0,18.6318-8.0782,35.2612-20.6934,47.0576h0.1777L505,531.7588L396.6719,423.4502c0.039,0,0.0688,0,0.1084-0.0689    c-12.625-11.767-20.624-28.3569-20.624-46.9887c0-35.6162,28.8398-64.417,64.456-64.417    C476.1602,311.9756,505,340.7764,505,376.3926z" fill="#F05354"/><path d="M505,541.8594c-2.584,0-5.168-0.9864-7.1406-2.959L389.5308,430.5913    c-0.3257-0.3159-0.6216-0.6606-0.8877-1.0161c-14.5782-14.1934-22.5869-33.0122-22.5869-53.1826    c0-41.0904,33.4462-74.5171,74.5561-74.5171c27.4399,0,51.4668,14.9233,64.3877,37.0859    c12.9307-22.1626,36.9678-37.0859,64.417-37.0859c41.0908,0,74.5273,33.4267,74.5273,74.5171    c0,20.1015-8.0088,38.9204-22.5966,53.1924c-0.2666,0.3457-0.5625,0.6904-0.8781,1.0063L512.1406,538.9004    C510.168,540.873,507.584,541.8594,505,541.8594L505,541.8594z M404.957,417.4531L505,517.4766l99.9941-99.9737    c0.3653-0.5132,0.7891-0.9863,1.2627-1.4306c11.2735-10.5435,17.4873-24.6382,17.4873-39.6797    c0-29.9551-24.372-54.3174-54.3271-54.3174c-29.9541,0-54.3174,24.3623-54.3174,54.3174c0,5.5825-4.5166,10.1001-10.0996,10.1001    c-5.5825,0-10.0996-4.5176-10.0996-10.1001c0-29.9551-24.3525-54.3174-54.2881-54.3174    c-29.9741,0-54.3564,24.3623-54.3564,54.3174c0,15.0713,6.1845,29.1362,17.4091,39.6011    C404.1479,416.4473,404.582,416.9307,404.957,417.4531L404.957,417.4531z" fill="#313233"/></g></g></svg>